<?xml version="1.0" encoding="utf-8"?>
<!-- Generator: Adobe Illustrator 16.0.4, SVG Export Plug-In . SVG Version: 6.00 Build 0)  -->
<!DOCTYPE svg PUBLIC "-//W3C//DTD SVG 1.1//EN" "http://www.w3.org/Graphics/SVG/1.1/DTD/svg11.dtd">
<svg version="1.1" xmlns="http://www.w3.org/2000/svg" xmlns:xlink="http://www.w3.org/1999/xlink" x="0px" y="0px" width="160px"
	 height="160px" viewBox="0 0 160 160" enable-background="new 0 0 160 160" xml:space="preserve">
<g id="Layer_4">
</g>
<g id="Layer_6">
	<circle display="none" fill="#FFFFFF" stroke="#000000" stroke-width="4" stroke-miterlimit="10" cx="80" cy="80" r="113.334"/>
	<circle display="none" fill="#FFFFFF" stroke="#000000" stroke-width="10" stroke-miterlimit="10" cx="80" cy="80" r="100.197"/>
	<path fill="#BE1E2D" d="M82.253,139.743c-3.968-9.758-10.398-18.062-15.24-27.359c-1.058-2.037-4.587-2.198-5.597,0
		c-3.739,8.129-10.271,14.351-16.676,20.417c-3.042,2.882,1.551,7.457,4.584,4.585c5.401-5.116,10.895-10.438,14.912-16.734
		c4.089,6.854,8.749,13.397,11.767,20.815C77.556,145.287,83.83,143.618,82.253,139.743z"/>
	<path fill="#BE1E2D" d="M75.474,27.107c-4.197,0.889-8.407,1.728-12.616,2.555c0.027-0.287,0.059-0.573,0.087-0.86
		c0.169-1.662,0.187-3.529,0.255-5.44c2.386-0.569,4.79-1.085,7.201-1.565c1.574,0.87,3.807,0.827,5.179-1.002
		c0.364-0.485,0.727-0.973,1.094-1.458c2.15-2.867-1.382-5.826-4.118-5.36c-2.782,0.475-5.54,1.053-8.285,1.668
		c0.44-1.33,1.07-2.556,1.985-3.596c3.092-3.518-2.047-8.698-5.157-5.158c-2.677,3.043-3.858,6.734-4.483,10.591
		c-2.159,0.553-4.316,1.119-6.476,1.697c0.298-1.891,0.564-3.789,0.772-5.697c0.5-4.674-6.802-4.625-7.298,0
		c-0.278,2.599-0.678,5.178-1.125,7.749c-5.625,1.497-11.267,2.932-16.988,4.053c-4.614,0.907-2.656,7.936,1.939,7.036
		c4.543-0.892,9.035-1.986,13.513-3.146c-0.357,1.712-0.721,3.419-1.083,5.131c-3.338,0.723-6.672,1.475-9.989,2.286
		c-4.57,1.119-2.633,8.154,1.937,7.036c2.16-0.528,4.326-1.029,6.496-1.519c-0.423,2.286-0.821,4.575-1.133,6.879
		c-0.623,4.599,6.406,6.583,7.032,1.941c0.477-3.517,1.113-7.004,1.802-10.481c2.847-0.594,5.699-1.175,8.557-1.741
		c-0.443,4.474-0.861,8.95-1.109,13.441c-0.258,4.702,7.039,4.677,7.297,0c0.275-4.987,0.777-9.952,1.303-14.913
		c5.122-1.004,10.242-2.011,15.351-3.09C82.014,33.17,80.061,26.139,75.474,27.107z M47.592,32.684
		c0.386-1.857,0.77-3.713,1.138-5.572c2.364-0.639,4.731-1.273,7.104-1.896c-0.154,1.978-0.336,3.955-0.524,5.928
		C52.734,31.651,50.162,32.161,47.592,32.684z"/>
	<g>
		<path d="M9.135,89.688c0-3.741,0.646-7.279,1.939-10.614c1.292-3.333,3.164-6.26,5.613-8.778c2.45-2.516,5.41-4.524,8.88-6.021
			c3.471-1.496,7.382-2.246,11.737-2.246c5.852,0,10.835,1.26,14.953,3.776c4.115,2.518,7.195,5.818,9.236,9.9l-13.37,4.082
			c-1.158-1.972-2.689-3.486-4.593-4.542c-1.906-1.054-4.016-1.582-6.328-1.582c-1.975,0-3.812,0.393-5.512,1.174
			c-1.701,0.783-3.182,1.872-4.439,3.266c-1.26,1.396-2.246,3.079-2.96,5.052c-0.715,1.975-1.072,4.151-1.072,6.532
			c0,2.383,0.373,4.56,1.123,6.532c0.748,1.975,1.751,3.675,3.011,5.104c1.259,1.429,2.738,2.535,4.439,3.317
			c1.7,0.782,3.504,1.174,5.41,1.174c2.449,0,4.711-0.613,6.787-1.838c2.074-1.225,3.521-2.721,4.338-4.49l13.37,4.082
			c-1.837,4.083-4.865,7.417-9.084,10.003c-4.22,2.586-9.287,3.878-15.207,3.878c-4.355,0-8.268-0.749-11.737-2.245
			c-3.471-1.496-6.431-3.521-8.88-6.073s-4.338-5.512-5.665-8.879C9.799,96.884,9.135,93.362,9.135,89.688z"/>
		<path d="M135.184,116.429V60.396l-24.087,42.969h-5.205L81.702,60.396v56.033h-9.186V43.963h9.696l26.23,47.052l26.332-47.052
			h9.595v72.466H135.184z"/>
	</g>
</g>
</svg>
