<?xml version="1.0" encoding="utf-8"?>
<!-- Generator: Adobe Illustrator 16.0.4, SVG Export Plug-In . SVG Version: 6.00 Build 0)  -->
<!DOCTYPE svg PUBLIC "-//W3C//DTD SVG 1.1//EN" "http://www.w3.org/Graphics/SVG/1.1/DTD/svg11.dtd">
<svg version="1.1" id="Layer_1" xmlns="http://www.w3.org/2000/svg" xmlns:xlink="http://www.w3.org/1999/xlink" x="0px" y="0px"
	 width="75px" height="75px" viewBox="0 0 75 75" enable-background="new 0 0 75 75" xml:space="preserve">
<g>
	<path fill="#FAFAFA" d="M68.792,11.649H6.208c-2.485,0-4.5,2.015-4.5,4.5s2.015,4.5,4.5,4.5h62.583c2.484,0,4.5-2.015,4.5-4.5
		S71.277,11.649,68.792,11.649z"/>
	<path fill="#FAFAFA" d="M68.792,32.999H6.208c-2.485,0-4.5,2.016-4.5,4.5c0,2.485,2.015,4.5,4.5,4.5h62.583
		c2.484,0,4.5-2.015,4.5-4.5C73.292,35.015,71.277,32.999,68.792,32.999z"/>
	<path fill="#FAFAFA" d="M68.792,54.352H6.208c-2.485,0-4.5,2.014-4.5,4.5c0,2.483,2.015,4.5,4.5,4.5h62.583
		c2.484,0,4.5-2.017,4.5-4.5C73.292,56.364,71.277,54.352,68.792,54.352z"/>
</g>
</svg>
