<?xml version="1.0" encoding="utf-8"?>
<!-- Generator: Adobe Illustrator 16.0.4, SVG Export Plug-In . SVG Version: 6.00 Build 0)  -->
<!DOCTYPE svg PUBLIC "-//W3C//DTD SVG 1.1//EN" "http://www.w3.org/Graphics/SVG/1.1/DTD/svg11.dtd">
<svg version="1.1" id="Layer_1" xmlns="http://www.w3.org/2000/svg" xmlns:xlink="http://www.w3.org/1999/xlink" x="0px" y="0px"
	 width="72px" height="72px" viewBox="-9 0 72 72" enable-background="new -9 0 72 72" xml:space="preserve">
<g id="Layer_4">
	<g>
		<path fill="#A41E22" d="M20.215,63.592V51.338c-5.578-1.547-10.037-4.535-13.377-8.965c-3.34-4.43-5.01-9.562-5.01-15.398
			c0-7.711,2.906-14.027,8.719-18.949c4.828-4.078,10.324-6.117,16.488-6.117c7.945,0,14.355,2.871,19.23,8.613
			c3.938,4.641,5.905,9.996,5.905,16.066c0,5.953-1.746,11.285-5.237,15.996c-3.142,4.266-7.523,7.184-13.148,8.754v12.254
			L27,69.092L20.215,63.592z M27,30.592l6.328,5.629c2.812-2.414,4.219-5.473,4.219-9.176c0-2.977-1.043-5.555-3.129-7.734
			s-4.547-3.27-7.383-3.27c-2.859,0-5.332,1.09-7.418,3.27c-2.086,2.18-3.129,4.758-3.129,7.734c0,3.797,1.406,6.855,4.219,9.426"/>
	</g>
</g>
</svg>
