<?xml version="1.0" encoding="utf-8"?>
<!-- Generator: Adobe Illustrator 16.0.4, SVG Export Plug-In . SVG Version: 6.00 Build 0)  -->
<!DOCTYPE svg PUBLIC "-//W3C//DTD SVG 1.1//EN" "http://www.w3.org/Graphics/SVG/1.1/DTD/svg11.dtd">
<svg version="1.1" id="Layer_1" xmlns="http://www.w3.org/2000/svg" xmlns:xlink="http://www.w3.org/1999/xlink" x="0px" y="0px"
	 width="512px" height="512px" viewBox="0 0 512 512" enable-background="new 0 0 512 512" xml:space="preserve">
<g>
	<path fill="#BBBBBB" d="M410.995,95.405v191.402l-44.603-47.916l-44.59,47.91V95.063C273.94,114.458,256,160.842,256,160.842
		s-25.34-74.171-110.166-74.171S35.478,160.842,35.478,160.842v263.761c0,0,32.052-74.501,110.357-74.501S256,424.699,256,424.699
		s28.624-74.597,110.189-74.597s110.333,74.501,110.333,74.501V162.476C476.522,162.476,458.595,115.331,410.995,95.405z
		 M321.803,286.843v-0.012l0.012,0.012H321.803z M410.995,286.843h-0.018l0.018-0.019V286.843z"/>
	<polygon fill="#BBBBBB" points="410.995,286.843 410.995,286.824 410.978,286.843 	"/>
	<polygon fill="#BBBBBB" points="321.803,286.843 321.814,286.843 321.803,286.831 	"/>
</g>
</svg>
