<?xml version="1.0" encoding="utf-8"?>
<!-- Generator: Adobe Illustrator 16.0.4, SVG Export Plug-In . SVG Version: 6.00 Build 0)  -->
<!DOCTYPE svg PUBLIC "-//W3C//DTD SVG 1.1//EN" "http://www.w3.org/Graphics/SVG/1.1/DTD/svg11.dtd">
<svg version="1.1" id="Layer_1" xmlns="http://www.w3.org/2000/svg" xmlns:xlink="http://www.w3.org/1999/xlink" x="0px" y="0px"
	 width="512px" height="512px" viewBox="0 0 512 512" enable-background="new 0 0 512 512" xml:space="preserve">
<rect display="none" fill="#FAFAFA" width="512" height="512"/>
<g opacity="0.5">
	<path fill="#FAFAFA" d="M53.558,191.823v77.937c50.577,0,98.114,19.76,133.852,55.67c35.317,35.493,54.93,82.574,55.436,132.789
		h77.936C319.704,311.146,200.271,191.823,53.558,191.823z"/>
	<path fill="#FAFAFA" d="M53.667,53.681v77.924c179.558,0,325.728,146.336,326.843,326.615h77.933
		C457.33,234.962,276.209,53.681,53.667,53.681z"/>
	<path fill="#FAFAFA" d="M107.473,350.176c-29.807,0-53.976,24.157-53.976,53.972c0,29.821,24.168,53.977,53.976,53.977
		c29.801,0,53.986-24.153,53.986-53.977C161.459,374.334,137.273,350.176,107.473,350.176z"/>
</g>
<path fill="#FAFAFA" d="M437.216,142.597c-13.335,5.914-27.666,9.912-42.706,11.708c15.353-9.203,27.145-23.773,32.693-41.138
	c-14.368,8.522-30.281,14.71-47.219,18.044c-13.563-14.451-32.891-23.48-54.274-23.48c-41.063,0-74.358,33.292-74.358,74.355
	c0,5.828,0.658,11.502,1.925,16.946c-61.798-3.102-116.588-32.705-153.261-77.691c-6.401,10.982-10.068,23.754-10.068,37.382
	c0,25.798,13.127,48.557,33.08,61.892c-12.189-0.386-23.655-3.731-33.679-9.3c-0.007,0.311-0.007,0.622-0.007,0.936
	c0,36.027,25.632,66.078,59.646,72.911c-6.238,1.699-12.808,2.607-19.589,2.607c-4.791,0-9.449-0.468-13.99-1.334
	c9.462,29.541,36.923,51.039,69.461,51.639c-25.448,19.943-57.509,31.83-92.347,31.83c-6.002,0-11.921-0.354-17.738-1.039
	c32.906,21.099,71.992,33.409,113.982,33.409c136.77,0,211.562-113.306,211.562-211.564c0-3.224-0.072-6.43-0.216-9.621
	C414.642,170.604,427.247,157.508,437.216,142.597z"/>
</svg>
